<svg
  class="svg-icon"
  style="vertical-align: middle; overflow: hidden"
  viewBox="0 0 1024 1024"
  version="1.1"
  xmlns="http://www.w3.org/2000/svg"
>
  <path
    d="M883.2 889.6c0 57.6-44.8 102.4-102.4 102.4h-550.4c-57.6 0-102.4-44.8-102.4-102.4v-665.6c0-57.6 44.8-102.4 102.4-102.4h550.4c57.6 0 102.4 44.8 102.4 102.4v665.6z m-57.6-665.6c0-25.6-19.2-44.8-44.8-44.8h-550.4c-25.6 0-44.8 19.2-44.8 44.8v665.6c0 25.6 19.2 44.8 44.8 44.8h550.4c25.6 0 44.8-19.2 44.8-44.8v-665.6z"
    fill="currentColor"
  />
  <path
    d="M723.2 883.2h-236.8c-6.4 0-12.8-6.4-12.8-12.8s6.4-12.8 12.8-12.8h236.8c25.6 0 38.4-25.6 38.4-70.4v-44.8c0-6.4 6.4-12.8 12.8-12.8s12.8 6.4 12.8 12.8v44.8c0 57.6-25.6 96-64 96zM774.4 684.8c-6.4 0-6.4 0-12.8-6.4 0 0-6.4-6.4-6.4-12.8s0-6.4 6.4-12.8 12.8-6.4 19.2 0c0 0 6.4 6.4 6.4 12.8s0 6.4-6.4 12.8c0 6.4 0 6.4-6.4 6.4zM281.6 281.6c-12.8 0-32-12.8-32-25.6v-185.6c0-12.8 12.8-25.6 32-25.6 12.8 0 25.6 12.8 25.6 25.6v185.6c6.4 12.8-12.8 25.6-25.6 25.6zM441.6 281.6c-12.8 0-32-12.8-32-25.6v-185.6c0-12.8 12.8-25.6 32-25.6 12.8 0 25.6 12.8 25.6 25.6v185.6c0 12.8-12.8 25.6-25.6 25.6zM595.2 281.6c-12.8 0-32-12.8-32-25.6v-185.6c0-12.8 12.8-25.6 32-25.6 12.8 0 25.6 12.8 25.6 25.6v185.6c6.4 12.8-6.4 25.6-25.6 25.6zM755.2 281.6c-12.8 0-32-12.8-32-25.6v-185.6c0-12.8 12.8-25.6 32-25.6 12.8 0 25.6 12.8 25.6 25.6v185.6c6.4 12.8-6.4 25.6-25.6 25.6z"
    fill="currentColor"
  />
  <path
    d="M857.6 396.8h-691.2c-6.4 0-12.8-6.4-12.8-12.8s6.4-12.8 12.8-12.8h691.2c6.4 0 12.8 6.4 12.8 12.8s0 12.8-12.8 12.8z"
    fill="currentColor"
  />
</svg>
