<svg
  viewBox="0 0 348 348"
  fill="none"
  version="1.1"
  id="svg3"
  xmlns="http://www.w3.org/2000/svg"
>
  <g
    clip-path="url(#clip0_3196_4840)"
    transform="translate(-164.961 -165.228)"
    fill-rule="evenodd"
    clip-rule="evenodd"
    id="g1"
  >
    <path
      d="M251.853 218.546v-33.824c.528-.023 1.056-.035 1.594-.035h171.006c19.57 0 35.469 15.889 35.469 35.461v237.847c0 19.571-15.899 35.461-35.469 35.461H253.447c-19.57 0-35.46-15.89-35.46-35.461V220.148c0-.537.01-1.07.029-1.602zm0 0v219.863c0 5.619 2.226 11.008 6.199 14.981 3.982 3.974 9.37 6.206 14.993 6.206h153.002V238.657c0-5.333-2.113-10.449-5.888-14.221-3.774-3.77-8.888-5.89-14.219-5.89zm104.03 193.403v21.412c0 1.651-.652 3.234-1.822 4.401-1.17 1.167-2.755 1.823-4.406 1.823h-21.41c-1.651 0-3.236-.656-4.407-1.823-1.17-1.167-1.821-2.75-1.821-4.401v-21.412c0-1.651.651-3.234 1.821-4.401 1.171-1.167 2.756-1.823 4.407-1.823h21.41c1.651 0 3.236.656 4.406 1.823 1.17 1.167 1.822 2.75 1.822 4.401z"
      fill="#000091"
      id="path1"
    />
    <path
      d="M396.768 251.953v28.15H281.104v-28.15zm0 43.973v28.148H281.104v-28.148zm-47.934 43.146v28.148h-67.73v-28.148z"
      fill="#e1000f"
      id="path2"
    />
  </g>
  <defs id="defs2">
    <clipPath id="clip0_3196_4840">
      <path
        fill="#fff"
        transform="translate(218 185)"
        d="M0 0h243v309H0z"
        id="path3"
      />
    </clipPath>
  </defs>
</svg>
