<svg viewBox="0 0 36 42" fill="none" xmlns="http://www.w3.org/2000/svg">
  <g clip-path="url(#clip0_5_830)">
    <path
      fill-rule="evenodd"
      clip-rule="evenodd"
      d="M26.5706 16.681V20.756H9.59985V16.681H26.5706ZM26.5706 23.0467V27.1215H9.59985V23.0467H26.5706ZM19.5375 29.2926V33.3674H9.59985V29.2926H19.5375Z"
      fill="#E1000F"
    />
    <path
      fill-rule="evenodd"
      clip-rule="evenodd"
      d="M35.6982 16.7351V33.2911C35.6826 33.2845 35.667 33.2756 35.6492 33.269V37.4663C35.6492 39.8874 33.641 41.8683 31.1867 41.8683H4.461C2.00664 41.8683 -0.00146484 39.8874 -0.00146484 37.4663V4.45137C-0.00146484 2.03028 2.00664 0.0493774 4.461 0.0493774H18.723V4.45137H4.461V37.4663H31.1867V16.7351H35.6982Z"
      fill="#000091"
    />
    <path
      d="M33.9524 0.0360107H23.626C22.6794 0.0360107 21.9049 0.799997 21.9049 1.73376V11.9202C21.9049 12.854 22.6794 13.618 23.626 13.618H33.9524C34.899 13.618 35.6735 12.854 35.6735 11.9202V1.73376C35.6735 0.799997 34.899 0.0360107 33.9524 0.0360107ZM26.6378 6.40257C26.6378 7.10713 26.0613 7.67588 25.347 7.67588H24.4865V8.73697C24.4865 9.08501 24.1939 9.37362 23.8411 9.37362C23.4883 9.37362 23.1957 9.08501 23.1957 8.73697V5.12925C23.1957 4.66237 23.5829 4.28038 24.0562 4.28038H25.347C26.0613 4.28038 26.6378 4.84913 26.6378 5.55369V6.40257ZM30.9405 8.10031C30.9405 8.80488 30.364 9.37362 29.6497 9.37362H27.9286C27.6877 9.37362 27.4984 9.18687 27.4984 8.94919V4.70482C27.4984 4.46713 27.6877 4.28038 27.9286 4.28038H29.6497C30.364 4.28038 30.9405 4.84913 30.9405 5.55369V8.10031ZM34.3827 4.91704C34.3827 5.26507 34.0901 5.55369 33.7373 5.55369H33.0919V6.40257H33.7373C34.0901 6.40257 34.3827 6.69118 34.3827 7.03922C34.3827 7.38726 34.0901 7.67588 33.7373 7.67588H33.0919V8.73697C33.0919 9.08501 32.7993 9.37362 32.4465 9.37362C32.0936 9.37362 31.8011 9.08501 31.8011 8.73697V5.12925C31.8011 4.66237 32.1883 4.28038 32.6616 4.28038H33.7373C34.0901 4.28038 34.3827 4.569 34.3827 4.91704ZM24.4865 6.40257H25.347V5.55369H24.4865V6.40257ZM28.7892 8.10031H29.6497V5.55369H28.7892V8.10031Z"
      fill="#000091"
    />
    <path
      fill-rule="evenodd"
      clip-rule="evenodd"
      d="M35.6734 10.0666V13.6574H32.4942V10.0666H35.6734ZM25.0866 0.0441895V3.59171H21.9041V0.0441895H25.0866Z"
      fill="#000091"
    />
  </g>
  <defs>
    <clipPath id="clip0_5_830">
      <rect width="36" height="42" fill="white" />
    </clipPath>
  </defs>
</svg>
