<svg width="32" height="32" viewBox="0 0 32 32" fill="none" xmlns="http://www.w3.org/2000/svg">
<path d="M21.6305 28.8312C22.7983 28.5038 23.9166 27.9062 24.6505 26.8503C25.3749 25.8163 25.5789 24.5047 25.5789 23.2425V4.75099C25.5789 4.42358 25.5611 4.09557 25.5216 3.77148C26.1016 3.99961 26.5486 4.37658 26.8626 4.90239C27.2331 5.50024 27.4184 6.28757 27.4184 7.26435V26.0464C27.4184 27.3684 27.0942 28.3578 26.4458 29.0146C25.7974 29.6714 24.8207 29.9998 23.5155 29.9998H16.4209C16.5889 29.9704 16.7574 29.9401 16.9262 29.909C18.4067 29.6444 19.9713 29.2854 21.6185 28.8346L21.6305 28.8312Z" fill="#C9191E"/>
<path fill-rule="evenodd" clip-rule="evenodd" d="M4.58203 25.655V6.8477C4.58203 5.70251 4.88938 4.83519 5.50408 4.24575C6.1272 3.65631 6.95242 3.33212 7.97972 3.27318C9.49542 3.18055 10.9311 3.05425 12.2868 2.89425C13.6425 2.72584 14.9393 2.53217 16.1771 2.31324C17.4234 2.0943 18.6359 1.85011 19.8148 1.58065C21.0274 1.29435 21.9578 1.4375 22.6062 2.0101C23.2546 2.58269 23.5788 3.49632 23.5788 4.75099V23.2425C23.5788 24.3456 23.3893 25.1666 23.0104 25.7055C22.6315 26.2529 21.9915 26.6528 21.0905 26.9054C19.4906 27.3433 17.9833 27.6886 16.5687 27.9412C15.154 28.2022 13.7731 28.4001 12.4258 28.5348C11.0785 28.6696 9.69751 28.7748 8.28286 28.8506C7.11241 28.918 6.20299 28.6738 5.5546 28.118C4.90622 27.5707 4.58203 26.7497 4.58203 25.655ZM9.20865 10.2624C11.0635 10.1444 12.7632 9.96305 14.3075 9.71831C14.6822 9.65722 15.0564 9.5936 15.4291 9.52759C15.8192 9.45851 16.1013 9.11859 16.1013 8.72337C16.1013 8.21154 15.638 7.82609 15.135 7.91189C14.846 7.96118 14.5555 8.00909 14.2635 8.05562C12.7346 8.29923 11.0452 8.47998 9.19523 8.5977C8.91819 8.61558 8.69776 8.70188 8.55608 8.87391C8.42209 9.03661 8.35645 9.23229 8.35645 9.45535C8.35645 9.68212 8.43296 9.87951 8.58568 10.0418L8.58783 10.0439C8.75336 10.2095 8.96369 10.2811 9.20865 10.2624ZM9.20801 14.456C11.0631 14.338 12.763 14.1566 14.3075 13.9119C15.8588 13.6589 17.3936 13.3638 18.9112 13.0266C19.2191 12.9581 19.4498 12.8503 19.5652 12.683C19.6786 12.5221 19.7347 12.3376 19.7347 12.1332C19.7347 11.9026 19.6469 11.704 19.476 11.5426C19.2921 11.3689 19.0348 11.3284 18.7304 11.3911L18.7285 11.3915C17.2823 11.7194 15.794 12.0053 14.2635 12.2492C12.7346 12.4928 11.0452 12.6735 9.19523 12.7913C8.91819 12.8091 8.69776 12.8954 8.55608 13.0675C8.42276 13.2294 8.35645 13.4205 8.35645 13.6363C8.35645 13.8703 8.43209 14.0723 8.58558 14.2354L8.59 14.2396C8.75499 14.3949 8.96316 14.4655 9.20551 14.4562L9.20801 14.456ZM9.20847 18.6494C11.0634 18.5229 12.7631 18.3374 14.3075 18.0927C15.8589 17.8482 17.3934 17.5573 18.9112 17.22C19.2199 17.1514 19.4508 17.0391 19.566 16.8627C19.6783 16.7029 19.7347 16.5233 19.7347 16.3266C19.7347 16.0961 19.6469 15.8974 19.476 15.7361C19.2921 15.5623 19.0348 15.5218 18.7304 15.5845L18.729 15.5848C17.2827 15.9043 15.7942 16.1861 14.2635 16.43C12.7345 16.6736 11.045 16.8586 9.19495 16.9847C8.91804 17.0026 8.69771 17.0889 8.55608 17.2609C8.42276 17.4228 8.35645 17.6139 8.35645 17.8297C8.35645 18.0637 8.43209 18.2658 8.58558 18.4289L8.59 18.433C8.75499 18.5883 8.96316 18.6589 9.20551 18.6496L9.20847 18.6494ZM14.3075 22.257C12.7632 22.5018 11.0635 22.6831 9.20867 22.8012C8.9637 22.8198 8.75337 22.7482 8.58783 22.5826L8.58572 22.5805C8.433 22.4182 8.35645 22.2208 8.35645 21.9941C8.35645 21.771 8.42209 21.5753 8.55608 21.4126C8.69776 21.2406 8.91827 21.1543 9.19531 21.1364C11.0453 21.0187 12.7346 20.838 14.2635 20.5943C14.5555 20.5478 14.846 20.4999 15.135 20.4506C15.638 20.3648 16.1013 20.7503 16.1013 21.2621C16.1013 21.6573 15.8192 21.9972 15.4291 22.0663C15.0564 22.1323 14.6822 22.1959 14.3075 22.257Z" fill="#000091"/>
</svg>
